<svg width="529" height="33" viewBox="0 0 529 33" fill="none" xmlns="http://www.w3.org/2000/svg">
<path d="M142.586 13.409C138.575 11.8446 136.884 10.9908 136.884 9.0194C136.884 7.47774 138.341 6.05513 141.361 6.05513C144.324 6.05513 146.562 6.92177 147.743 7.52007L149.285 1.95549C147.47 1.08053 144.962 0.405884 141.445 0.405884C134.242 0.405884 129.816 4.37589 129.816 9.61734C129.816 14.1316 133.192 16.9606 138.299 18.7849C142.009 20.0647 143.457 21.2031 143.457 23.083C143.457 25.1232 141.768 26.4494 138.575 26.4494C135.614 26.4494 132.69 25.4906 130.874 24.5295L129.446 30.2309C131.177 31.1932 134.654 32.1543 138.156 32.1543C146.603 32.1543 150.523 27.7693 150.523 22.6129C150.523 18.235 148.014 15.4053 142.586 13.409Z" fill="#007DC2"/>
<path d="M152.941 6.7513H161.242V31.6565H168.176V6.7513H176.573V0.903992H152.941V6.7513Z" fill="#007DC2"/>
<path d="M187.242 18.653H198.556V12.9928H187.242V6.6024H199.245V0.903992H180.307V31.6565H199.875V25.9517H187.242V18.653Z" fill="#007DC2"/>
<path d="M211.593 18.653H222.906V12.9928H211.593V6.6024H223.602V0.903992H204.676V31.6565H224.242V25.9517H211.593V18.653Z" fill="#007DC2"/>
<path d="M235.956 25.805V0.903992H229.013V31.6565H248.187V25.805H235.956Z" fill="#007DC2"/>
<path d="M28.3612 10.0474V0.903992H0.376465V10.0474H8.43328V31.6308H20.3199V10.0474H28.3612Z" fill="#007DC2"/>
<path d="M86.7043 10.0474V0.903992H58.7222V10.0474H66.7733V31.6308H78.6618V10.0474H86.7043Z" fill="#007DC2"/>
<path d="M37.4337 31.6308L43.6227 16.0705L49.7939 31.6308H61.7463L49.6355 0.903992H37.586L25.4941 31.6308H37.4337Z" fill="#007DC2"/>
<path d="M95.1873 31.6308L101.378 16.0705L107.55 31.6308H119.499L107.394 0.903992H95.3423L83.2485 31.6308H95.1873Z" fill="#007DC2"/>
<path d="M261.746 31.6622H268.539V19.5522H279.352V14.0118H268.539V7.13003H280.112V1.54427H261.746V31.6622ZM298.522 1.00793C289.675 1.00793 283.866 7.75592 283.866 16.7822C283.866 25.4063 289.139 32.1539 298.031 32.1539C306.878 32.1539 312.821 26.2106 312.821 16.2904C312.821 7.93466 307.772 1.00793 298.522 1.00793ZM298.388 6.41491C303.08 6.41491 305.627 11.0622 305.627 16.5138C305.627 22.3679 302.991 26.7469 298.388 26.7469C293.83 26.7469 291.06 22.5913 291.06 16.648C291.06 10.7942 293.741 6.41491 298.388 6.41491ZM317.29 1.54427V18.3461C317.29 27.9087 321.714 32.1539 329.31 32.1539C337.175 32.1539 341.867 27.73 341.867 18.4357V1.54427H335.075V18.8379C335.075 24.2002 333.108 26.7023 329.534 26.7023C326.093 26.7023 324.082 24.0661 324.082 18.8379V1.54427H317.29ZM354.021 31.6622V22.5913C354.021 17.676 353.932 13.4309 353.709 9.40871H353.887C355.317 12.9392 357.328 16.8268 359.115 20.0439L365.55 31.6622H372.7V1.54427H366.444V10.3025C366.444 14.8603 366.578 18.927 366.981 22.9042H366.891C365.506 19.5076 363.763 15.7541 361.976 12.5816L355.72 1.54427H347.765V31.6622H354.021ZM378.598 31.528C380.252 31.7517 382.799 31.9751 386.329 31.9751C392.228 31.9751 397.099 30.7237 400.271 28.0875C403.13 25.6297 405.231 21.6528 405.231 15.8883C405.231 10.5705 403.264 6.86206 400.137 4.53803C397.277 2.39352 393.523 1.32089 387.759 1.32089C384.363 1.32089 381.101 1.58925 378.598 1.99139V31.528ZM385.391 6.81744C385.972 6.68327 387 6.54911 388.474 6.54911C394.372 6.54911 398.036 9.85581 398.036 16.1117C398.036 23.3064 393.97 26.7023 387.759 26.6573C386.955 26.6573 385.972 26.6573 385.391 26.5235V6.81744ZM424.624 23.9319L426.948 31.6622H434.321L424.937 1.54427H416L406.84 31.6622H413.855L416 23.9319H424.624ZM416.983 18.8379L418.77 12.4478C419.262 10.7047 419.709 8.42603 420.156 6.63869H420.245C420.692 8.42603 421.228 10.6601 421.764 12.4478L423.641 18.8379H416.983ZM440.443 31.6622H447.235V7.2642H455.457V1.54427H432.31V7.2642H440.443V31.6622ZM459.121 1.54427V31.6622H465.914V1.54427H459.121ZM485.083 1.00793C476.236 1.00793 470.427 7.75592 470.427 16.7822C470.427 25.4063 475.699 32.1539 484.592 32.1539C493.439 32.1539 499.383 26.2106 499.383 16.2904C499.383 7.93466 494.333 1.00793 485.083 1.00793ZM484.949 6.41491C489.641 6.41491 492.188 11.0622 492.188 16.5138C492.188 22.3679 489.552 26.7469 484.949 26.7469C480.391 26.7469 477.621 22.5913 477.621 16.648C477.621 10.7942 480.302 6.41491 484.949 6.41491ZM510.107 31.6622V22.5913C510.107 17.676 510.018 13.4309 509.794 9.40871H509.973C511.403 12.9392 513.413 16.8268 515.201 20.0439L521.636 31.6622H528.786V1.54427H522.53V10.3025C522.53 14.8603 522.664 18.927 523.066 22.9042H522.977C521.591 19.5076 519.848 15.7541 518.062 12.5816L511.805 1.54427H503.851V31.6622H510.107Z" fill="#007DC2"/>
</svg>
