<svg width="478" height="418" viewBox="0 0 478 418" fill="none" xmlns="http://www.w3.org/2000/svg">
<path fill-rule="evenodd" clip-rule="evenodd" d="M0.0761719 298.884H114.911V333.824H81.9744V417.812H34.1203V333.824H0.0761719V298.884Z" fill="#007DC2"/>
<path fill-rule="evenodd" clip-rule="evenodd" d="M173.069 346.934L148.898 417.812H102.94L148.013 298.884H197.91L244.065 417.812H197.555L173.069 346.934Z" fill="#007DC2"/>
<path fill-rule="evenodd" clip-rule="evenodd" d="M233.096 298.884H347.929V333.824H314.993V417.812H267.14V333.824H233.096V298.884Z" fill="#007DC2"/>
<path fill-rule="evenodd" clip-rule="evenodd" d="M406.09 346.934L381.916 417.812H335.96L381.032 298.884H430.93L477.086 417.812H430.576L406.09 346.934Z" fill="#007DC2"/>
<path fill-rule="evenodd" clip-rule="evenodd" d="M406.986 80.5862C402.717 72.1915 397.079 64.1366 390.087 56.5889C374.366 39.6158 352.177 25.4947 325.916 15.7529C299.458 5.93713 269.257 0.749359 238.581 0.749359C207.905 0.749359 177.704 5.93713 151.246 15.7529C124.985 25.4947 102.794 39.6158 87.0739 56.5889C80.0806 64.1392 74.4408 72.1983 70.1699 80.5972C104.347 72.3359 162.816 61.4161 217.104 60.2675C222.342 60.1579 225.946 61.8299 228.321 64.8377C231.216 68.5012 230.994 81.5715 230.917 87.4094L229.372 238.434C232.436 238.538 235.505 238.606 238.581 238.606C241.681 238.606 244.764 238.551 247.826 238.446L246.281 87.4094C246.204 81.5715 245.984 68.5012 248.878 64.8377C251.253 61.8299 254.856 60.1579 260.093 60.2675C314.36 61.4149 372.802 72.3272 406.986 80.5862Z" fill="#007DC2"/>
<path fill-rule="evenodd" clip-rule="evenodd" d="M414.274 100.223C364.248 88.914 330.847 86.8243 297.877 84.9958C269.147 83.4023 268.775 93.6611 271.648 113.27C271.822 114.465 272.057 115.97 272.334 117.694C281.97 174.775 293.966 223.898 296.033 232.225C366.086 216.223 416.607 171.827 416.607 119.676C416.607 113.111 415.805 106.608 414.274 100.223Z" fill="#007DC2"/>
<path fill-rule="evenodd" clip-rule="evenodd" d="M205.551 113.27C208.422 93.6611 208.05 83.4023 179.321 84.9958C146.344 86.8247 112.932 88.9163 62.8858 100.232C61.3558 106.614 60.5542 113.113 60.5542 119.676C60.5542 142.219 69.7241 164.035 87.0736 182.767C102.794 199.738 124.984 213.859 151.246 223.601C160.763 227.132 170.788 230.016 181.122 232.32C183.064 224.509 195.343 174.36 205.093 116.259C205.268 115.141 205.427 114.116 205.551 113.27Z" fill="#007DC2"/>
</svg>
