 <svg width="73" height="73" viewBox="0 0 73 73" fill="none" xmlns="http://www.w3.org/2000/svg">
                <circle cx="36.5" cy="36.5" r="36.5" fill="#01204C" />
                <path
                  d="M9.88497 37.5319C9.61417 36.6121 9.68392 35.6256 10.0814 34.7531C10.4789 33.8806 11.1776 33.1805 12.0493 32.7813C12.921 32.3821 13.9074 32.3104 14.8277 32.5793C15.748 32.8483 16.5406 33.4399 17.0601 34.2458C17.2639 34.57 17.4245 34.9194 17.5378 35.2852C17.577 35.4101 17.6071 35.5376 17.6278 35.6668C17.6413 35.7485 17.6239 35.8323 17.5791 35.902C17.5342 35.9717 17.4651 36.0222 17.3852 36.0438L11.8325 37.6754C11.793 37.6873 11.7569 37.7087 11.7274 37.7376C11.6979 37.7666 11.6759 37.8023 11.6633 37.8416C11.6507 37.881 11.6478 37.9228 11.655 37.9635C11.6621 38.0042 11.679 38.0426 11.7043 38.0753C11.9604 38.386 12.2849 38.6333 12.6524 38.7977C13.02 38.9622 13.4206 39.0394 13.8229 39.0233C14.2252 39.0072 14.6184 38.8982 14.9716 38.7049C15.3248 38.5115 15.6285 38.2391 15.8589 37.9089C15.9058 37.8427 15.9755 37.7961 16.0546 37.7781C16.1338 37.7601 16.2168 37.7719 16.2878 37.8112L16.8983 38.1485C16.9395 38.1709 16.9756 38.2017 17.0042 38.2389C17.0328 38.276 17.0533 38.3188 17.0644 38.3644C17.0754 38.41 17.0768 38.4574 17.0685 38.5035C17.0601 38.5497 17.0422 38.5936 17.0158 38.6324C16.6277 39.2134 16.0933 39.6818 15.4665 39.9905C14.8397 40.2993 14.1426 40.4374 13.4455 40.391C12.7483 40.3445 12.0757 40.1152 11.4954 39.7261C10.9151 39.337 10.4475 38.8018 10.1399 38.1745L9.88497 37.5319ZM11.4158 35.1616C11.2579 35.4451 11.1544 35.7557 11.1106 36.0774C11.106 36.1207 11.1121 36.1645 11.1285 36.2048C11.1449 36.2452 11.1711 36.2809 11.2046 36.3087C11.2382 36.3365 11.2781 36.3556 11.3208 36.3642C11.3635 36.3728 11.4077 36.3708 11.4494 36.3582L15.9352 35.0441C15.6947 34.6549 15.3564 34.3356 14.9539 34.118C14.5515 33.9004 14.0991 33.7922 13.6417 33.8041C13.1844 33.816 12.7382 33.9476 12.3476 34.1858C11.9571 34.424 11.6358 34.7604 11.4158 35.1616Z"
                  fill="white" />
                <path
                  d="M20.7662 35.8192V40.2134C20.7662 40.3074 20.7289 40.3974 20.6625 40.4638C20.5961 40.5302 20.5061 40.5675 20.4121 40.5675H19.7467C19.6528 40.5675 19.5627 40.5302 19.4963 40.4638C19.4299 40.3974 19.3926 40.3074 19.3926 40.2134V32.6598C19.3924 32.6132 19.4014 32.567 19.4191 32.5238C19.4368 32.4807 19.4629 32.4415 19.4958 32.4085C19.5287 32.3754 19.5678 32.3492 19.6108 32.3313C19.6539 32.3134 19.7001 32.3042 19.7467 32.3042H20.0229C20.2198 32.3046 20.4085 32.3831 20.5475 32.5224C20.6866 32.6618 20.7647 32.8506 20.7647 33.0475C21.298 32.6401 21.9496 32.4177 22.6207 32.4141C23.1208 32.4191 23.6125 32.5426 24.0556 32.7745C24.4987 33.0064 24.8805 33.34 25.1696 33.7481C25.4579 33.3414 25.8382 33.0085 26.2796 32.7767C26.721 32.5449 27.2108 32.4206 27.7093 32.4141C29.489 32.4141 30.939 33.9404 30.939 35.8147V40.2073C30.939 40.254 30.9298 40.3003 30.9119 40.3434C30.894 40.3866 30.8678 40.4258 30.8348 40.4588C30.8018 40.4918 30.7626 40.518 30.7194 40.5359C30.6763 40.5538 30.6301 40.563 30.5833 40.563H29.9194C29.8728 40.563 29.8266 40.5538 29.7836 40.5359C29.7405 40.518 29.7014 40.4918 29.6685 40.4587C29.6356 40.4257 29.6095 40.3864 29.5918 40.3433C29.5741 40.3002 29.5651 40.254 29.5653 40.2073V35.8192C29.5653 34.7035 28.732 33.7878 27.7078 33.7878C26.6837 33.7878 25.8503 34.7035 25.8503 35.8147V40.2073C25.8505 40.254 25.8415 40.3002 25.8238 40.3433C25.8061 40.3864 25.78 40.4257 25.7471 40.4587C25.7142 40.4918 25.6751 40.518 25.6321 40.5359C25.589 40.5538 25.5428 40.563 25.4962 40.563H24.8323C24.7857 40.563 24.7395 40.5538 24.6964 40.5359C24.6534 40.518 24.6143 40.4918 24.5814 40.4587C24.5485 40.4257 24.5224 40.3864 24.5047 40.3433C24.487 40.3002 24.478 40.254 24.4782 40.2073V35.8192C24.4782 34.7035 23.6433 33.7878 22.6207 33.7878C21.5981 33.7878 20.7632 34.7035 20.7632 35.8147L20.7662 35.8192Z"
                  fill="white" />
                <path
                  d="M32.6973 36.3966C32.6973 35.6117 32.93 34.8445 33.3661 34.1919C33.8021 33.5393 34.4219 33.0307 35.147 32.7303C35.8721 32.4299 36.67 32.3514 37.4398 32.5045C38.2096 32.6576 38.9167 33.0355 39.4717 33.5905C40.0267 34.1455 40.4046 34.8526 40.5577 35.6224C40.7108 36.3922 40.6323 37.1901 40.3319 37.9152C40.0315 38.6403 39.5229 39.2601 38.8703 39.6961C38.2177 40.1322 37.4505 40.3649 36.6656 40.3649C35.6141 40.3617 34.6066 39.9426 33.8631 39.1991C33.1196 38.4556 32.7005 37.4481 32.6973 36.3966ZM34.0709 36.3966C34.0721 36.9111 34.2258 37.4137 34.5126 37.8408C34.7993 38.268 35.2063 38.6006 35.682 38.7966C36.1577 38.9926 36.6808 39.0432 37.1852 38.9419C37.6897 38.8407 38.1528 38.5922 38.5161 38.2279C38.8793 37.8636 39.1265 37.3997 39.2262 36.895C39.3259 36.3903 39.2738 35.8673 39.0765 35.3921C38.8791 34.917 38.5453 34.5111 38.1173 34.2256C37.6893 33.9401 37.1862 33.7878 36.6717 33.7881C35.9809 33.7894 35.3187 34.0648 34.8308 34.5539C34.3428 35.0429 34.069 35.7057 34.0694 36.3966H34.0709Z"
                  fill="#F7471E" />
                <path
                  d="M41.8916 38.5026C41.8785 38.4565 41.8755 38.4081 41.8829 38.3607C41.8902 38.3134 41.9078 38.2682 41.9344 38.2283C41.9609 38.1884 41.9958 38.1547 42.0367 38.1296C42.0775 38.1045 42.1233 38.0886 42.1709 38.0829L42.8944 37.9898C42.9674 37.9824 43.0408 37.9993 43.1032 38.038C43.1656 38.0766 43.2134 38.1348 43.2393 38.2035C43.4759 38.7636 44.2345 39.1559 45.0404 39.0795C45.2808 39.067 45.5163 39.0065 45.7331 38.9017C45.9499 38.7969 46.1435 38.6498 46.3026 38.469C46.39 38.3681 46.4559 38.2504 46.4963 38.1231C46.5367 37.9958 46.5508 37.8617 46.5376 37.7288C46.4613 37.1289 45.9836 36.9336 44.8725 36.697C44.5646 36.6419 44.2622 36.5597 43.9689 36.4513C42.7173 35.9278 42.174 34.7724 42.6471 33.6337C43.0577 32.6432 44.2742 32.1075 45.5471 32.3684C46.1576 32.4936 47.0734 33.0202 47.3176 33.9497C47.3306 33.998 47.3327 34.0486 47.3237 34.0978C47.3147 34.1471 47.2949 34.1937 47.2657 34.2343C47.2364 34.2749 47.1985 34.3085 47.1547 34.3327C47.1109 34.3568 47.0623 34.371 47.0123 34.374L46.2904 34.3923C46.2222 34.3944 46.1548 34.377 46.0961 34.3421C46.0374 34.3072 45.9899 34.2563 45.9592 34.1954C45.8065 33.8902 45.3716 33.7299 45.2785 33.7116C44.6679 33.5895 44.0773 33.7848 43.9216 34.1588C43.6942 34.7083 44.1139 35.0181 44.5061 35.1829C44.7215 35.2576 44.9425 35.3148 45.167 35.3539C46.1118 35.5553 47.6946 35.8927 47.9067 37.5533C47.9445 37.8699 47.9176 38.1909 47.8276 38.4968C47.7376 38.8027 47.5864 39.0872 47.3832 39.3329C47.1074 39.6574 46.7693 39.9232 46.3888 40.1145C46.0084 40.3059 45.5935 40.419 45.1686 40.4471C45.0678 40.4547 44.9671 40.4578 44.8633 40.4578C43.4622 40.4578 42.2381 39.6443 41.8916 38.5026Z"
                  fill="white" />
                <path
                  d="M49.2275 38.5025C49.2144 38.4564 49.2114 38.408 49.2188 38.3607C49.2262 38.3133 49.2438 38.2681 49.2703 38.2282C49.2969 38.1883 49.3318 38.1546 49.3726 38.1295C49.4135 38.1044 49.4593 38.0885 49.5069 38.0828L50.2303 37.9897C50.3033 37.9823 50.3767 37.9992 50.4391 38.0379C50.5015 38.0765 50.5494 38.1347 50.5753 38.2034C50.8118 38.7635 51.5704 39.1558 52.3763 39.0795C52.6168 39.0671 52.8524 39.0067 53.0691 38.9019C53.2859 38.797 53.4795 38.6498 53.6385 38.469C53.724 38.3672 53.788 38.2491 53.8266 38.1218C53.8652 37.9946 53.8775 37.8609 53.8629 37.7287C53.7866 37.1289 53.3088 36.9335 52.1977 36.6969C51.8903 36.642 51.5884 36.5598 51.2957 36.4512C50.0472 35.9246 49.5053 34.7692 49.9785 33.6352C50.3891 32.6446 51.607 32.1089 52.8784 32.3699C53.489 32.4951 54.4047 33.0216 54.6489 33.9511C54.6622 33.9995 54.6645 34.0502 54.6557 34.0995C54.6468 34.1489 54.627 34.1956 54.5977 34.2363C54.5685 34.277 54.5305 34.3106 54.4865 34.3347C54.4425 34.3588 54.3937 34.3727 54.3437 34.3755L53.6217 34.3938C53.5535 34.3959 53.4861 34.3785 53.4275 34.3436C53.3688 34.3087 53.3213 34.2578 53.2905 34.1969C53.1379 33.8916 52.7044 33.7314 52.6113 33.713C52.0008 33.5909 51.4101 33.7863 51.2529 34.1603C51.0255 34.7097 51.4453 35.0196 51.8375 35.1844C52.0499 35.2581 52.2678 35.3147 52.4892 35.3538C53.434 35.5553 55.0168 35.8926 55.2289 37.5532C55.2667 37.8698 55.2398 38.1908 55.1498 38.4967C55.0598 38.8027 54.9086 39.0871 54.7054 39.3329C54.4296 39.6573 54.0915 39.9231 53.711 40.1145C53.3306 40.3059 52.9157 40.419 52.4908 40.447C52.39 40.4547 52.2908 40.4577 52.1855 40.4577C50.7981 40.4577 49.5755 39.6442 49.2275 38.5025Z"
                  fill="white" />
                <path
                  d="M59.1085 39.3255C59.1516 39.2239 59.1737 39.1146 59.1737 39.0042C59.1737 38.8939 59.1516 38.7846 59.1085 38.6829L56.1628 32.7014C56.1395 32.6686 56.1264 32.6297 56.1251 32.5894C56.1238 32.5492 56.1344 32.5095 56.1556 32.4753C56.1768 32.4411 56.2076 32.4139 56.2442 32.3971C56.2808 32.3803 56.3215 32.3747 56.3612 32.3809H57.1747C57.281 32.3864 57.3841 32.4187 57.4746 32.4747C57.565 32.5308 57.6399 32.6087 57.6922 32.7014L59.8656 37.117C59.9511 37.294 60.093 37.2925 60.18 37.117L62.3168 32.7029C62.368 32.6098 62.4421 32.5314 62.5321 32.475C62.6221 32.4186 62.7251 32.3862 62.8312 32.3809H63.9988L63.8462 32.7029L58.4797 43.7701L58.3271 44.0921L58.1882 44.3791C58.1365 44.4654 58.0637 44.5371 57.9767 44.5876C57.8896 44.638 57.7912 44.6655 57.6906 44.6675H56.8802C56.8403 44.6733 56.7997 44.6674 56.7631 44.6504C56.7266 44.6335 56.6958 44.6063 56.6744 44.5722C56.6531 44.5381 56.6421 44.4985 56.6429 44.4582C56.6436 44.418 56.6561 44.3788 56.6787 44.3455L59.1085 39.3255Z"
                  fill="white" />
                <path
                  d="M35.5205 36.9703C35.8156 36.9703 36.0547 36.7311 36.0547 36.4361C36.0547 36.141 35.8156 35.9019 35.5205 35.9019C35.2255 35.9019 34.9863 36.141 34.9863 36.4361C34.9863 36.7311 35.2255 36.9703 35.5205 36.9703Z"
                  fill="#F7471E" />
                <path
                  d="M37.8233 36.9703C38.1183 36.9703 38.3575 36.7311 38.3575 36.4361C38.3575 36.141 38.1183 35.9019 37.8233 35.9019C37.5282 35.9019 37.2891 36.141 37.2891 36.4361C37.2891 36.7311 37.5282 36.9703 37.8233 36.9703Z"
                  fill="#F7471E" />
                <path
                  d="M36.6035 43.4965C34.914 43.4966 33.2746 42.9223 31.9545 41.8679C31.8152 41.7538 31.7243 41.5913  [ngStyle]31.6999 41.4129C31.6756 41.2346 31.7196 41.0536 31.8232 40.9063C31.8717 40.8339 31.9347 40.7724 32.0083 40.7257C32.0818 40.679 32.1643 40.6481 32.2505 40.635C32.3366 40.622 32.4246 40.627 32.5087 40.6498C32.5928 40.6726 32.6712 40.7127 32.739 40.7675C33.8383 41.645 35.2031 42.1229 36.6097 42.1229C38.0162 42.1229 39.381 41.645 40.4803 40.7675C40.5482 40.7129 40.6266 40.673 40.7107 40.6503C40.7948 40.6277 40.8826 40.6227 40.9687 40.6357C41.0548 40.6488 41.1373 40.6796 41.2108 40.7262C41.2844 40.7728 41.3475 40.8341 41.3961 40.9063C41.4996 41.0533 41.5436 41.2341 41.5192 41.4122C41.4949 41.5903 41.404 41.7526 41.2648 41.8664C39.9418 42.9242 38.2975 43.4992 36.6035 43.4965Z"
                  fill="#F7471E" />
              </svg>